<svg xmlns="http://www.w3.org/2000/svg" xmlns:xlink="http://www.w3.org/1999/xlink" viewBox="0 0 208.83 276"><defs><style>.cls-1{fill:none;}.cls-2{clip-path:url(#clip-path);}.cls-3{fill:#131a3b;}.cls-4{fill:#f0644c;}.cls-5{fill:#e4565b;}.cls-6{fill:#171827;}.cls-7{fill:#924d9e;}.cls-8{fill:#7b4198;}.cls-9{fill:#ac2a8d;}.cls-10{fill:#962f92;}.cls-11{fill:#d2446c;}.cls-12{fill:#c0307e;}.cls-13{fill:#fcc844;}.cls-14{fill:#ee6d53;}.cls-15{fill:#f7914d;}.cls-16{fill:#ed4a76;}.cls-17{fill:#ef4682;}.cls-18{fill:#e33b8d;}</style><clipPath id="clip-path" transform="translate(11.65 35.47)"><circle class="cls-1" cx="89.94" cy="89.94" r="89.94"/></clipPath></defs><title>sanspicBareLogo</title><g id="Layer_2" data-name="Layer 2"><g id="Layer_1-2" data-name="Layer 1"><g class="cls-2"><path class="cls-3" d="M180.88,184.44v36H-.94v-36c9.49.34,19,.77,28.46,1,9.2.2,18.41.17,27.62.23,2.61,2.69,5.2,2.7,7.76-.06,3.58-.69,7.24-1.93,10.82-1.06,4.15,1,8.23.29,12.33.4,2.78.07,4.17-.6,3.25-4.11-1.65-6.35-3.76-12.69-3.45-19.41l-.08-1a1.09,1.09,0,0,0,0-.9c0-2.51,0-5,.05-7.54l.24-7.55.79-5v-1a.92.92,0,0,0,0-.88l.09-2,.9-5.3c.54-2.85,1.55-5.64,1-8.61l.78-4c-.35-2.56,1.09-5.06.32-7.64l0-3.09c.18-4,0-8.08.94-12l-1.34-8.35c-2.19,3-2.3,5.88-2.88,8.64-2.92,1.58-4.9,3.84-5.32,7.26-.08.74-.16,1.48-.23,2.22-4.09.43-7,3.41-10.57,4.92l-6.2-.07-1-2.91c1.48-1.89,2.19-3.87.81-6.13a3.25,3.25,0,0,0-.3-.84.42.42,0,0,0,.09-.55,3.38,3.38,0,0,0,2.43-2.3q1.09-4.47,2.17-8.94C64.46,93.89,57.33,92.18,52,94.69a3.84,3.84,0,0,0-.89-.28c-2.06-.35-5-3-5,1.93l-1-.18c-.74-1.24-1.48-2.49-2.21-3.74a2.29,2.29,0,0,0,0-.94c4.13-8.19,12-13,17.91-18.6-5.15-5.31-9.51-1.3-14.09-.41a7.43,7.43,0,0,1-1.49,0c.31-.56.94-1.16.87-1.68-.79-6.15,1-10.8,7.25-13a11.69,11.69,0,0,0,1.59-.92c-3.59-.72-4.12-1.87-.85-3.46,8.51-.78,17-4.63,25.54-.1.7.38,2.25.39,2.11-.27-.8-4,3.53-5.22,4.18-8.42s7-8.4,8.37-6.72c1.76,2.13,2.93,1.33,4.88.94s5-1.49,5.63,1.17c.56,2.41-2.6,2.25-4.3,3-.34.14-.49.7-.7,1,.82,1.12,2.87-.52,3.14,1.57-1.08.94-2.18,1.86-3.22,2.84-.57.54-2.62.31-1.08,2.06.88,1,1.58,1.47,2.68.3a27.85,27.85,0,0,1,2.52-2.19c3.19-2.6,7.13-.09,10.55-1.59,2-.9,4.2-.09,6.33.39,4.13.93.8,2,0,3.14,4.43,0,8.63.73,12.44,3-.08,1.44-1.69.69-2.21,1.55,2.08,1.13,4.24,2.13,6.2,3.43,1,.69,2.14,1.84,1.69,3.29-.55,1.78-2.2.87-3.37.92-1.8.07-3.6-.06-5.4-.1-2,.46-1.1,1.2-.19,2,2.12.87-.83,3.19,1.18,4.1,1.92,2.75,4.31,4.6,8.26,3.5-.62,1.81-.66,3.5-1.51,4.16-3.61,2.84-1.92,5.29.13,7.9a13.24,13.24,0,0,1,1.09,2.16l-3.9.24c-2.28-1.28-4.53-2.6-6.83-3.83-1-.56-2-2-3.41-.53a3.1,3.1,0,0,0-.57,3.68c1.45,2.67,1.76,5.64,2.65,8.44l.14,2.11-.13,2.63c-4.21,1.15-2.42,4.62-2.8,7.26-.33,1.11-.66,2.22-1,3.34-.25.51-.42,1.4-.76,1.47-1,.21-1-.9-1.4-1.43l-1.56-3.66-.95-2.65c-3.67,2.33-3.13-2.28-4.93-3a11.34,11.34,0,0,0-2.28-5.2l-.74-1.66L109,96.21a.51.51,0,0,0-.61,0c-.68-3-1.69-5.65-5.32-6a18.51,18.51,0,0,0-7.57-10.73c-1.27,5.86,1.26,11.26-.08,16.69.45,1.68-1.29,3.89,1.24,5.06,0,2,0,3.92.07,5.88-.15,2.2-.29,4.39-.44,6.58l0,1.83-.07,1.09a1.12,1.12,0,0,0,0,.86l.06,4a.86.86,0,0,0,0,.89l-.51,5.78-.49,7.33v4.07l0,1.89v1.15a1,1,0,0,0,0,.93v1c0,2.48,0,5,0,7.44-.15,3.18-.39,6.37.4,9.51a81.76,81.76,0,0,0,3.89,20c.44,1.36.54,3,2.62,3.13,3.13.23,6.25.87,9.38.93,11.27.23,22.54-.43,33.79-.64C157.05,184.54,169,184.29,180.88,184.44Z" transform="translate(11.65 35.47)"/><path class="cls-4" d="M-.94,8.56C-.94-5.23-.9-19-1-32.83c0-2,.18-2.65,2.46-2.64q88.5.12,177,0c2.27,0,2.48.66,2.47,2.63-.1,12.8-.06,25.61-.06,38.41-9.08.48-18.22-1.17-27.3.88a13.79,13.79,0,0,1-7.41-.23c-8-3-16.15.3-24.1-1.28A12.24,12.24,0,0,0,114,6.52a5.66,5.66,0,0,1-4.64,2.22Q54.21,8.52-.94,8.56Zm60.84-21c1.23,1.08.84,2.69,2.68,2.5C61.42-10.35,62.56-12.15,59.9-12.41Z" transform="translate(11.65 35.47)"/><path class="cls-5" d="M-.94,8.56q55.15,0,110.3.18A5.68,5.68,0,0,0,114,6.53c2.49,2.84,5.3,2.29,8.07-1.59,8,1.58,16.13-1.71,24.1,1.28a13.79,13.79,0,0,0,7.41.23c9.08-2,18.22-.4,27.3-.88v31c-7.8,0-15.6.06-23.4-.09-3.92-.08-7.57.07-9.45,4.31-3.28-5.89-8.78-8.42-13.69-11.42-2.56-1.56-.39,1.79-1.38,2.29-2.3,0-4-1.25-5.81-2.45-3-2-5.84-4.45-9.14-5.54-10.07-3.33-20.43-5.47-31.14-5.07-2.31-.1-4.63-.35-6.8.76l-1,.05c0-.61,0-1.22,0-1.83.9-.17,2,0,2.18-1.32,0-.28-.61-.91-.88-.88-1.29.16-1.11,1.32-1.29,2.21a3.5,3.5,0,0,0-3,2.72c-9.84,2-18.79,6.12-27.25,11.43-3.43.22-3.39.19-5-2.43-.23-.38-1.11-.5-1.68-.5q-21.51-.15-43-.23Zm86,6.7c3.17-1.54,6.73-.37,10-1.3C91.66,14.39,88,12,85.05,15.26Z" transform="translate(11.65 35.47)"/><path class="cls-6" d="M-.94,220.42H180.88c0,6-.06,12,.05,18,0,1.6-.13,2.46-2,2.06a9.42,9.42,0,0,0-2,0q-87,0-173.94.11c-3.5,0-4.25-.8-4-4.14C-.69,231.07-.94,225.74-.94,220.42Zm51,6.13c-3.29,2.36-5.61,3.72-4.74,6.81.42,1.51,1.64.35,2.42.18C51.81,232.63,49.08,229.77,50.07,226.55Zm-6.37,4.94c.29-.61,0-.91-.5-1.1a2.76,2.76,0,0,0-.77-.07,5.16,5.16,0,0,0,.58,1.09C43.11,231.54,43.47,231.47,43.7,231.49ZM24,231l-.5-.94a2.52,2.52,0,0,0-.27.8,2.69,2.69,0,0,0,.27.83Z" transform="translate(11.65 35.47)"/><path class="cls-7" d="M180.88,115.49v54H118.56l-.75-1.25c6.78-.95,10.07-4.28,8.67-10.92-.13-.59.27-1.28.43-1.93l1.83-3.72,6.82,1.4-.66-8.42c4.81.33,8-2.07,10.42-6,1.34-2.15.77-3-1.56-3.12-3-.14-5.93-.23-8.89-.35A6.88,6.88,0,0,1,137,130.8c5.26-1.85,11-.22,16.25-2.26,2.51-.07,4.89,0,5.65-3.39a12.55,12.55,0,0,1,11.57-9.56C173.94,115.45,177.41,115.52,180.88,115.49Z" transform="translate(11.65 35.47)"/><path class="cls-8" d="M126.91,155.35c-.16.65-.56,1.34-.43,1.93,1.4,6.64-1.89,10-8.67,10.92l.75,1.25h62.32v15c-11.9-.15-23.83.1-35.71.32-11.25.21-22.52.87-33.79.64-3.13-.06-6.25-.7-9.38-.93-2.08-.15-2.18-1.77-2.62-3.13a81.76,81.76,0,0,1-3.89-20C106.57,162.52,117.09,160.78,126.91,155.35Z" transform="translate(11.65 35.47)"/><path class="cls-9" d="M66.35,96.75a3.38,3.38,0,0,1-2.43,2.3c-13.63-.13-27.28,0-40.89-.53-4.41-.17-4.49,1.47-4.16,4.76s2.58,3.3,5,3.3c13.15,0,26.3,0,39.44,0l1,2.91c-3,.07-6,.19-9,.2-9.95,0-19.9,0-29.84,0-4.69,0-5.11,1.14-3.18,5.43,1,2.27,2.41,2.62,4.62,2.61,20.89-.1,41.78-.09,62.67-.12l-.78,4q-29.44,0-58.89-.07c-1.43,0-3.29-.69-4.06,1-.93,2,1.31,2.73,2.27,4l-.26,1c-5.33,4.3-11.59,4.24-17.95,4-3.62-.16-7.25,0-10.87,0v-47c5.38-.46,10.84.89,16.19-.83.8-.26,2.35-.72,2.87.91,0,2.83.06,5.66,0,8.49-.06,2.53,1,3.53,3.59,3.45,7-.19,14-.22,20.93-.32l2.4,0,1,.18c2.12.49,3.46-1.06,5-1.93a3.84,3.84,0,0,1,.89.28c.26,2.26,2,1.77,3.41,1.8C59.06,96.59,62.71,96.67,66.35,96.75Z" transform="translate(11.65 35.47)"/><path class="cls-10" d="M-.94,131.48c3.62,0,7.25-.15,10.87,0,6.36.28,12.62.34,18-4,.93,1.07,1.21,3,3.28,2.61a1,1,0,0,0-.15.49,8.49,8.49,0,0,0,4.35.81h47.3a7.52,7.52,0,0,0,4.31-.9q.42-.15.84-.27l-.9,5.3-45.41-.09c-2,0-4-.1-6,0-1.29.05-2.79,1.23-1.59,2.09,3.43,2.45,5,7.2,10.69,7,13.79-.45,27.61-.14,41.42-.14L85.79,152c-11.42-.07-22.86-1-34.26.53-1.27.19-3.35-.44-3.65.82-1.07,4.44-4.43,3.06-7.12,3.13-7.89.22-15.77,1.33-23.66.05-5.49-3.54-11.37-5.72-18-5Z" transform="translate(11.65 35.47)"/><path class="cls-8" d="M17.1,156.5c7.89,1.28,15.77.17,23.66-.05,2.69-.07,6.05,1.31,7.12-3.13.3-1.26,2.38-.63,3.65-.82.81,1.88,2.76,2.24,4.28,3.17,9.29,5.71,19.51,6.54,30,5.74-.31,6.72,1.8,13.06,3.45,19.41.92,3.51-.47,4.18-3.25,4.11-4.1-.11-8.18.6-12.33-.4-3.58-.87-7.24.37-10.82,1.06l-7.76.06c-9.21-.06-18.42,0-27.62-.23-9.49-.21-19-.64-28.46-1v-5H65a54.67,54.67,0,0,0-13.62-3c-2.15-.25-3.93-.72-4.55-3.08-2.36-9.09-8.7-12-17.37-10.92C23.94,163.17,19.1,162.91,17.1,156.5Z" transform="translate(11.65 35.47)"/><path class="cls-11" d="M-.94,28.55q21.51.11,43,.23c.57,0,1.45.12,1.68.5,1.59,2.62,1.55,2.65,5,2.43-3.62,4.9-10.21,6.82-12.82,12.75-5.86,3.92-7.54,10.86-11.61,16.06-2.32.17-4.24,2.83-6.58,1.67-6.07-3-12.45-1.08-18.66-1.66Z" transform="translate(11.65 35.47)"/><path class="cls-9" d="M180.88,115.49c-3.47,0-6.94,0-10.4.1a12.55,12.55,0,0,0-11.57,9.56c-.76,3.42-3.14,3.32-5.65,3.39,0-.56,0-1.13,0-1.7,1.43-1.11,3.12-2.38,2.07-4.33-.91-1.69-2.89-.86-4.45-.75l-48,0-6.65-.36-.06-4q29.43.13,58.86.23c1.55,0,3.53.33,3.79-2.15.1-.29.18-.58.25-.87,1.93-3.81.34-5.09-3.47-5.06-10.82.08-21.63.08-32.45.12.32-1.12.65-2.23,1-3.34,11.09,0,22.19,0,33.28.15,3.43,0,4.82-1.65,4.92-4.78.11-3.87-2.91-2.28-4.66-2.43-10.23-.91-20.49-.32-30.74-.2l.13-2.63c10.73,0,21.46,0,32.19,0,2.83,0,4.64-.58,3.51-3.95l.36-3.93c2.43-1,1.69-3.72,3.1-5.46a9.11,9.11,0,0,0,9.47.27c1.66-.89,3.46-.83,5.24-.88Z" transform="translate(11.65 35.47)"/><path class="cls-7" d="M17.1,156.5c2,6.41,6.84,6.67,12.38,6,8.67-1.09,15,1.83,17.37,10.92.62,2.36,2.4,2.83,4.55,3.08a54.67,54.67,0,0,1,13.62,3h-66v-28C5.73,150.78,11.61,153,17.1,156.5Z" transform="translate(11.65 35.47)"/><path class="cls-11" d="M133,31.63c1-.5-1.18-3.85,1.38-2.29,4.91,3,10.41,5.53,13.69,11.42,1.88-4.24,5.53-4.39,9.45-4.31,7.8.15,15.6.08,23.4.09v24c-5.72,0-11.5-.4-17.16.2-2.65.28-4.49-3.09-7.12-.95-2.73-1.77-2.67-5.63-5.48-7.33-.56-.75-1-1.73-2.23-1l.13,0c.6-2.64-1.19-4.29-2.51-6.16C142.75,40,137.52,36.15,133,31.63Z" transform="translate(11.65 35.47)"/><path class="cls-12" d="M-.94,60.53c6.21.58,12.59-1.33,18.66,1.66,2.34,1.16,4.26-1.5,6.58-1.67-.17,3.44-3.16,6.17-2.48,9.82C19,74.63,19,79.53,18.89,84.4a6.66,6.66,0,0,1-.77.19c-.52-1.63-2.07-1.17-2.87-.91-5.35,1.72-10.81.37-16.19.83Z" transform="translate(11.65 35.47)"/><path class="cls-12" d="M156.6,59.78c2.63-2.14,4.47,1.23,7.12.95,5.66-.6,11.44-.19,17.16-.2v22c-1.78,0-3.58,0-5.24.88a9.11,9.11,0,0,1-9.47-.27c-1.41,1.74-.67,4.49-3.1,5.46-1.65-6.64-1.5-13.63-3.93-20.12Z" transform="translate(11.65 35.47)"/><path class="cls-13" d="M133,31.63c4.56,4.52,9.79,8.37,13.55,13.68,1.32,1.87,3.11,3.52,2.51,6.16-5.43-.22-10.31,4-16,2-3.81-2.24-8-2.92-12.44-3,.77-1.16,4.1-2.21,0-3.14-2.13-.48-4.29-1.29-6.33-.39-3.42,1.5-7.36-1-10.55,1.59l-.9-3c-.27-2.09-2.32-.45-3.14-1.57.21-.33.36-.89.7-1,1.7-.72,4.86-.56,4.3-3-.61-2.66-3.77-1.54-5.63-1.17s-3.12,1.19-4.88-.94c-1.38-1.68-7.72,3.53-8.37,6.72S80.81,49,81.61,53c.14.66-1.41.65-2.11.27-8.54-4.53-17-.68-25.54.1-1.32-3.89-4.31-2.75-7-2.29-6.92,1.16-8.46.26-11-6.63,2.61-5.93,9.2-7.85,12.82-12.75C57.19,26.4,66.14,22.27,76,20.28l3-.9,1-.05,6.8-.76c10.71-.4,21.07,1.74,31.14,5.07,3.3,1.09,6.17,3.56,9.14,5.54C129,30.38,130.66,31.65,133,31.63Z" transform="translate(11.65 35.47)"/><path class="cls-14" d="M18.89,84.4c.09-4.87.06-9.77,2.93-14.06,1.52,1.26,3.35,1.21,5.16,1.22,6.06,0,12.13-.42,18.12.9a7.43,7.43,0,0,0,1.49,0c4.58-.89,8.94-4.9,14.09.41C54.8,78.45,46.9,83.29,42.77,91.48c-4.4,1.36-8.81,2.58-13.51,2.07-2.27-.25-4.66.33-6.75-1.07s-1.08-4.08-2.15-7l-.49,5.2-.62,0Z" transform="translate(11.65 35.47)"/><path class="cls-15" d="M45.1,72.46c-6-1.32-12.06-.85-18.12-.9-1.81,0-3.64,0-5.16-1.22-.68-3.65,2.31-6.38,2.48-9.82,4.07-5.2,5.75-12.14,11.61-16.06,2.56,6.89,4.1,7.79,11,6.63,2.72-.46,5.71-1.6,7,2.29-3.27,1.59-2.74,2.74.85,3.46a11.69,11.69,0,0,1-1.59.92c-6.25,2.22-8,6.87-7.25,13C46,71.3,45.41,71.9,45.1,72.46Z" transform="translate(11.65 35.47)"/><path class="cls-16" d="M89.6,117.64c-20.89,0-41.78,0-62.67.12-2.21,0-3.59-.34-4.62-2.61-1.93-4.29-1.51-5.39,3.18-5.43,9.94-.08,19.89,0,29.84,0,3,0,6-.13,9-.2l6.2.07,19.44.45C90.69,112.58,89.25,115.08,89.6,117.64ZM25,112.7l.21.41h37.6v-.41Zm47.9.06,0,.36H84.87l0-.36Z" transform="translate(11.65 35.47)"/><path class="cls-17" d="M87.81,130.27q-.42.12-.84.27c-18.65-.29-37.3-.47-56,.09a1,1,0,0,1,.15-.49c1.87-1,3.91-.69,5.88-.69q19,0,37.91,0H85l0-.94H80c-14.47,0-28.94,0-43.4,0-2,0-4.49.73-5.61-2h54c-17.25-.9-34.5-.91-51.74-.86a7,7,0,0,0-2.29.88l-2.89.05c-1-1.22-3.2-1.91-2.27-4,.77-1.69,2.63-1,4.06-1q29.45,0,58.89.07C89.36,124.63,88.35,127.42,87.81,130.27Z" transform="translate(11.65 35.47)"/><path class="cls-16" d="M123.1,109.67c10.82,0,21.63,0,32.45-.12,3.81,0,5.4,1.25,3.47,5.06H128.93v.87h29.83c-.26,2.48-2.24,2.15-3.79,2.15q-29.43-.06-58.86-.23a1.12,1.12,0,0,1,0-.86l.07-1.09c0-.61,0-1.22,0-1.83.54-1.36,1.09-2.72,1.63-4.07l23.06.16c.44.53.43,1.64,1.4,1.43C122.68,111.07,122.85,110.18,123.1,109.67Zm5.81,2,.18.5H157v-.5Zm-12.16,3.58.11-.47H105v.47Zm-.13-3,.4-.5H105v.5Z" transform="translate(11.65 35.47)"/><path class="cls-15" d="M133.06,53.47c5.65,2,10.53-2.22,16-2l-.13,0,2.23,1c2.81,1.7,2.75,5.56,5.48,7.33l2.55,8.68c-6.4.1-12.51,1.87-18.72,3.12a.41.41,0,0,1-.49-.32c-.12-1.54-1.24-1.57-2.37-1.56-2.23-.2-4.23-1.78-6.61-1.09-2-.91.94-3.23-1.18-4.1.06-.65.13-1.3.19-2,1.8,0,3.6.17,5.4.1,1.17,0,2.82.86,3.37-.92.45-1.45-.65-2.6-1.69-3.29-2-1.3-4.12-2.3-6.2-3.43C131.37,54.16,133,54.91,133.06,53.47Z" transform="translate(11.65 35.47)"/><path class="cls-17" d="M86,144.43c-13.81,0-27.63-.31-41.42.14-5.7.19-7.26-4.56-10.69-7-1.2-.86.3-2,1.59-2.09,2-.09,4,0,6,0l45.41.09-.09,2-42.39,0c-1.82,0-3.68-.19-5.34.84,1.66,1.51,3.72,1.13,5.67,1.14q21,0,42.06,0Zm-1.38-2.55c-12-2-23.83.45-35.71.11C60.87,141.29,72.81,144.57,84.65,141.88Z" transform="translate(11.65 35.47)"/><path class="cls-17" d="M102.83,121.78l48,0c0,.26,0,.52,0,.78-.75,1.92-2.43,1.9-4.07,1.93s-3.29.17-3.9,2.14a5.53,5.53,0,0,1-3.84,1,3.31,3.31,0,0,0-3.16-2H104.85v1.17h28.84c-2.87,2.23-6,1.57-9,1.8-7.22.56-14.54-1.13-21.71.9l-3,.86-2.11.07c-.44-.7-.89-1.4-1.89-1.27l-.41-1,.51-5.77C98.39,122.4,100.67,122.8,102.83,121.78Z" transform="translate(11.65 35.47)"/><path class="cls-10" d="M134.9,144.61l.66,8.42-6.82-1.4-33.65.24c0-2.48,0-5,0-7.44Z" transform="translate(11.65 35.47)"/><path class="cls-18" d="M95.09,151.87l33.65-.24-1.83,3.72c-9.82,5.43-20.34,7.17-31.42,6C94.7,158.24,94.94,155.05,95.09,151.87Z" transform="translate(11.65 35.47)"/><path class="cls-18" d="M85.85,161.41c-10.53.8-20.75,0-30-5.74-1.52-.93-3.47-1.29-4.28-3.17,11.4-1.53,22.84-.6,34.26-.53q0,3.78-.05,7.55H72.92v.9H85.77Z" transform="translate(11.65 35.47)"/><path class="cls-16" d="M126.88,99.07c10.25-.12,20.51-.71,30.74.2,1.75.15,4.77-1.44,4.66,2.43-.1,3.13-1.49,4.82-4.92,4.78-11.09-.14-22.19-.11-33.28-.15C124.46,103.69,122.67,100.22,126.88,99.07Zm30.05,5.14v-.4h-28v.4Z" transform="translate(11.65 35.47)"/><path class="cls-18" d="M134.9,144.61l-39.79-.18v-1H109v-.93H95.11c0-.38,0-.76,0-1.14,12.85.1,25.68-.79,38.55.12,0-.67,0-1.34,0-2H95.12c0-.32,0-.64,0-1,11.63,0,23.26,0,34.89,0,2.12,0,4.55.4,4.93-2.77a2.1,2.1,0,0,1-.08-.56c3,.12,5.93.21,8.89.35,2.33.11,2.9,1,1.56,3.12C142.89,142.54,139.71,144.94,134.9,144.61ZM121,142.75l-.14.53H133v-.53Z" transform="translate(11.65 35.47)"/><path class="cls-16" d="M63.83,99.6a3.25,3.25,0,0,1,.3.84c-.91,3.06-3.28,3.17-5.91,3.15-11.09-.07-22.19,0-33.28,0v1.07h36c-12,.89-23.9.93-35.83.84-2.12,0-4.89-.22-4.68-3.19s3-2.73,5.08-2.73C38.29,99.52,51.06,99.58,63.83,99.6Z" transform="translate(11.65 35.47)"/><path class="cls-10" d="M95.63,128.09c.14.34.27.68.4,1,.09,1.23.84,1.47,1.9,1.27l2.11-.07,37,.5a6.88,6.88,0,0,0-2.14,4.36,2.1,2.1,0,0,0,.08.56l-39.81-.3Z" transform="translate(11.65 35.47)"/><path class="cls-17" d="M63.83,99.6c-12.77,0-25.54-.08-38.32,0-2.12,0-4.88-.12-5.08,2.73s2.56,3.18,4.68,3.19c11.93.09,23.87,0,35.83-.84h-36v-1.07c11.09,0,22.19,0,33.28,0,2.63,0,5-.09,5.91-3.15,1.38,2.26.67,4.24-.81,6.13-13.14,0-26.29,0-39.44,0-2.43,0-4.67.13-5-3.3s-.25-4.93,4.16-4.76c13.61.54,27.26.4,40.89.53A.42.42,0,0,1,63.83,99.6Z" transform="translate(11.65 35.47)"/><path class="cls-16" d="M96.69,107c0-2,0-3.92-.07-5.88a25,25,0,0,1,16.87-.77c1.81.73,1.27,5.34,4.94,3,.32.88.64,1.77.95,2.65-7.47,1.27-15.07-.56-22.54,1Z" transform="translate(11.65 35.47)"/><path class="cls-17" d="M95.14,135.42l39.81.3c-.38,3.17-2.81,2.76-4.93,2.77-11.63,0-23.26,0-34.89,0C95.14,137.49,95.14,136.46,95.14,135.42Z" transform="translate(11.65 35.47)"/><path class="cls-14" d="M95.38,96.1c1.34-5.43-1.19-10.83.08-16.69A18.5,18.5,0,0,1,103,90.15c2,3.49-.88,4.58-3,6Z" transform="translate(11.65 35.47)"/><path class="cls-14" d="M126.87,94.33c-.89-2.8-1.2-5.77-2.65-8.44a3.1,3.1,0,0,1,.57-3.68c1.42-1.5,2.37,0,3.41.53,2.3,1.23,4.55,2.55,6.83,3.83-.06,1.45-.24,3,.86,4.12,1.71,1.73-.26,2-.95,2.82C132.24,93.71,129.45,93,126.87,94.33Z" transform="translate(11.65 35.47)"/><path class="cls-5" d="M18.89,84.4l.36,6.31.62,0,.49-5.2c1.07,2.87,0,5.49,2.15,7s4.48.82,6.75,1.07c4.7.51,9.11-.71,13.51-2.07a2.29,2.29,0,0,1,0,.94c-1,1.21-2.46,2.41-.19,3.79-7,.1-14,.13-20.93.32-2.57.08-3.65-.92-3.59-3.45.07-2.83,0-5.66,0-8.49A6.66,6.66,0,0,0,18.89,84.4Z" transform="translate(11.65 35.47)"/><path class="cls-5" d="M134.94,93.51c.69-.8,2.66-1.09.95-2.82-1.1-1.12-.92-2.67-.86-4.12l3.9-.24a5.06,5.06,0,0,0,3.74-1c5.08.37,5.37,5.57,8.24,8.16h-16Z" transform="translate(11.65 35.47)"/><path class="cls-5" d="M126.87,94.33c2.58-1.34,5.37-.62,8.07-.82h0a27.3,27.3,0,0,0,16,0h0a45.44,45.44,0,0,0,11.8-1c1.13,3.37-.68,4-3.51,3.95-10.73-.06-21.46,0-32.19,0Z" transform="translate(11.65 35.47)"/><path class="cls-6" d="M142.67,85.35a5.06,5.06,0,0,1-3.74,1,13.24,13.24,0,0,0-1.09-2.16c-2.05-2.61-3.74-5.06-.13-7.9.85-.66.89-2.35,1.51-4.16-3.95,1.1-6.34-.75-8.26-3.5,2.38-.69,4.38.89,6.61,1.09l2.37,1.56a.4.4,0,0,0,.49.31c2.54,1.94-.84,6,2.78,7.58a5.67,5.67,0,0,0-3.44,2.24l-.11.4.4-.1,2.6,0c.07,1,.15,1.91.22,2.86C142.8,84.84,142.73,85.09,142.67,85.35Z" transform="translate(11.65 35.47)"/><path class="cls-17" d="M95.12,139.49h38.51c0,.68,0,1.35,0,2-12.87-.91-25.7,0-38.55-.12C95.11,140.75,95.12,140.12,95.12,139.49Z" transform="translate(11.65 35.47)"/><path class="cls-5" d="M66.35,96.75c-3.64-.08-7.29-.16-10.94-.26-1.42,0-3.15.46-3.41-1.8,5.33-2.51,12.46-.8,16.52-6.88Q67.44,92.28,66.35,96.75Z" transform="translate(11.65 35.47)"/><path class="cls-9" d="M96.84,107c7.47-1.54,15.07.29,22.54-1l1.56,3.66-23.06-.16C97.54,108.71,97.19,107.87,96.84,107Z" transform="translate(11.65 35.47)"/><path class="cls-17" d="M90.82,94.86c-.94,4-.76,8-.94,12-2.47-1.4-6.08,1.36-7.95-2.2.83,0,1.66,0,2.47-.09,1.41-.17,3.08.38,4-1.24.15-.27-.16-1.16-.4-1.22-1.51-.4-2.79-2-4.58-1-.72.4-1.42.83-2.12,1.25.42-3.42,2.4-5.68,5.32-7.26C88.08,96.09,89.4,94.74,90.82,94.86Z" transform="translate(11.65 35.47)"/><path class="cls-12" d="M95.38,96.1l4.66.09,8.31,0a.51.51,0,0,1,.61,0,2.08,2.08,0,0,0,2.26-1,11.34,11.34,0,0,1,2.28,5.2,24.93,24.93,0,0,0-16.88.76C94.09,100,95.83,97.78,95.38,96.1Z" transform="translate(11.65 35.47)"/><path class="cls-9" d="M81.93,104.71c1.87,3.56,5.48.8,7.95,2.2,0,1,0,2.06,0,3.09l-19.44-.45c3.58-1.51,6.48-4.49,10.57-4.92l.45,0Z" transform="translate(11.65 35.47)"/><path class="cls-18" d="M86.82,139.46q-21,0-42.06,0c-1.95,0-4,.37-5.67-1.14l47.73.08Z" transform="translate(11.65 35.47)"/><path class="cls-16" d="M86.82,138.42l-47.73-.08c1.66-1,3.52-.84,5.34-.84l42.39,0A.92.92,0,0,1,86.82,138.42Z" transform="translate(11.65 35.47)"/><path class="cls-5" d="M108.35,96.16l-8.31,0c2.11-1.46,5-2.55,3-6C106.66,90.51,107.67,93.19,108.35,96.16Z" transform="translate(11.65 35.47)"/><path class="cls-16" d="M81.93,104.71l-.43-.12-.45,0c.07-.74.15-1.48.23-2.22.7-.42,1.4-.85,2.12-1.25,1.79-1,3.07.6,4.58,1,.24.06.55,1,.4,1.22-.9,1.62-2.57,1.07-4,1.24C83.59,104.72,82.76,104.68,81.93,104.71Z" transform="translate(11.65 35.47)"/><path class="cls-5" d="M90.82,94.86c-1.42-.12-2.74,1.23-4.22.29.58-2.76.69-5.67,2.88-8.64Z" transform="translate(11.65 35.47)"/><path class="cls-15" d="M102.81,45.55l.9,3a27.85,27.85,0,0,0-2.52,2.19c-1.1,1.17-1.8.71-2.68-.3C97,48.7,99,48.93,99.59,48.39,100.63,47.41,101.73,46.49,102.81,45.55Z" transform="translate(11.65 35.47)"/><path class="cls-17" d="M95.11,142.53H109v.93H95.12A1,1,0,0,1,95.11,142.53Z" transform="translate(11.65 35.47)"/><path class="cls-6" d="M55.14,185.65l7.76-.06C60.34,188.35,57.75,188.34,55.14,185.65Z" transform="translate(11.65 35.47)"/><path class="cls-17" d="M85.77,160.42H72.92v-.9H85.74A1.09,1.09,0,0,1,85.77,160.42Z" transform="translate(11.65 35.47)"/><path class="cls-6" d="M51.11,94.41c-1.59.87-2.93,2.42-5,1.93C46.13,91.45,49.05,94.06,51.11,94.41Z" transform="translate(11.65 35.47)"/><path class="cls-6" d="M42.63,96.21c-2.27-1.38-.86-2.58.19-3.79.73,1.25,1.47,2.5,2.21,3.74Z" transform="translate(11.65 35.47)"/><path class="cls-12" d="M96.84,107c.35.84.7,1.68,1,2.52-.54,1.35-1.09,2.71-1.63,4.07.15-2.19.29-4.38.44-6.58Z" transform="translate(11.65 35.47)"/><path class="cls-18" d="M102.83,121.78c-2.16,1-4.44.62-6.69.54a.88.88,0,0,1,0-.9Z" transform="translate(11.65 35.47)"/><path class="cls-5" d="M111.22,95.2a2.08,2.08,0,0,1-2.26,1c.5-.89,1-1.78,1.52-2.67Z" transform="translate(11.65 35.47)"/><path class="cls-6" d="M130,62.56c-.06.65-.13,1.3-.19,2C128.87,63.76,128,63,130,62.56Z" transform="translate(11.65 35.47)"/><path class="cls-12" d="M96.2,115.45l-.07,1.09Z" transform="translate(11.65 35.47)"/><path class="cls-6" d="M122.07,4.94c-2.77,3.88-5.58,4.43-8.07,1.59A12.19,12.19,0,0,1,122.07,4.94Z" transform="translate(11.65 35.47)"/><path class="cls-6" d="M59.9-12.41c2.66.26,1.52,2.06,2.68,2.5C60.74-9.72,61.13-11.33,59.9-12.41Z" transform="translate(11.65 35.47)"/><path class="cls-14" d="M85.05,15.26C88,12,91.66,14.39,95,14,91.78,14.89,88.22,13.72,85.05,15.26Z" transform="translate(11.65 35.47)"/><path class="cls-14" d="M79,19.38l-3,.9a3.5,3.5,0,0,1,3-2.72h0Z" transform="translate(11.65 35.47)"/><path class="cls-14" d="M79,17.56c.18-.89,0-2,1.29-2.21.27,0,.91.6.88.88-.13,1.3-1.28,1.15-2.18,1.32Z" transform="translate(11.65 35.47)"/><path class="cls-14" d="M86.87,18.57l-6.8.76C82.24,18.22,84.56,18.47,86.87,18.57Z" transform="translate(11.65 35.47)"/><path class="cls-7" d="M50.07,226.55c-1,3.22,1.74,6.08-2.32,7-.78.17-2,1.33-2.42-.18C44.46,230.27,46.78,228.91,50.07,226.55Z" transform="translate(11.65 35.47)"/><path class="cls-7" d="M43.7,231.49c-.23,0-.59,0-.69-.08a5.16,5.16,0,0,1-.58-1.09,2.76,2.76,0,0,1,.77.07C43.66,230.58,44,230.88,43.7,231.49Z" transform="translate(11.65 35.47)"/><path class="cls-7" d="M24,231l-.5.69a2.69,2.69,0,0,1-.27-.83,2.52,2.52,0,0,1,.27-.8Z" transform="translate(11.65 35.47)"/><path class="cls-18" d="M137,130.8l-37-.5,3-.86c9.7,0,19.4,0,29.11.1,2.53,0,4.91-.31,7-1.94a5.53,5.53,0,0,0,3.84-1l9.82-.29.49.52c0,.57,0,1.14,0,1.7C148,130.58,142.27,129,137,130.8Z" transform="translate(11.65 35.47)"/><path class="cls-16" d="M28.14,126.54l2.89-.05v0c1.12,2.74,3.57,2,5.61,2,14.46.05,28.93,0,43.4,0h4.9l0,.94H75q-18.95,0-37.91,0c-2,0-4-.3-5.88.69-2.07.36-2.35-1.54-3.28-2.61Z" transform="translate(11.65 35.47)"/><path class="cls-9" d="M31,130.63c18.66-.56,37.31-.38,56-.09a7.52,7.52,0,0,1-4.31.9H35.36A8.49,8.49,0,0,1,31,130.63Z" transform="translate(11.65 35.47)"/><path class="cls-14" d="M143.21,79.15c-3.62-1.54-.24-5.64-2.78-7.58,6.21-1.24,12.32-3,18.72-3.11,2.42,6.49,2.27,13.48,3.92,20.12l-.36,3.93a45.44,45.44,0,0,1-11.8,1c-2.87-2.59-3.16-7.79-8.24-8.16.06-.26.13-.51.21-.77A1.46,1.46,0,0,0,144,83c.56-1.4.7-2.73-.7-3.77Zm16.37,11.11a1.49,1.49,0,0,0,0-.42c0-.06-.24,0-.36,0a1,1,0,0,0,0,.43S159.45,90.25,159.58,90.26Z" transform="translate(11.65 35.47)"/><path class="cls-17" d="M158.77,115.48H128.94v-.87H159C159,114.9,158.87,115.19,158.77,115.48Z" transform="translate(11.65 35.47)"/><path class="cls-18" d="M150.9,122.54c0-.26,0-.52,0-.78,1.56-.11,3.54-.94,4.45.75,1.05,1.95-.64,3.22-2.07,4.33l-.48-.52C153.05,124.62,153,123.1,150.9,122.54Z" transform="translate(11.65 35.47)"/><path class="cls-13" d="M151.12,52.45l-2.23-1C150.11,50.72,150.56,51.7,151.12,52.45Z" transform="translate(11.65 35.47)"/><path class="cls-17" d="M25,112.7h37.8v.41H25.23Z" transform="translate(11.65 35.47)"/><path class="cls-17" d="M72.92,112.76H84.85l0,.36H72.94Z" transform="translate(11.65 35.47)"/><path class="cls-16" d="M31,126.49a7,7,0,0,1,2.29-.88c17.24,0,34.49,0,51.74.86H31Z" transform="translate(11.65 35.47)"/><path class="cls-17" d="M128.91,111.71H157v.5H129.09Z" transform="translate(11.65 35.47)"/><path class="cls-17" d="M116.75,115.29H105v-.47h11.85Z" transform="translate(11.65 35.47)"/><path class="cls-17" d="M116.62,112.31H105v-.5h12Z" transform="translate(11.65 35.47)"/><path class="cls-14" d="M139.94,71.26l-2.37-1.56C138.7,69.69,139.82,69.72,139.94,71.26Z" transform="translate(11.65 35.47)"/><path class="cls-18" d="M84.65,141.88c-11.84,2.69-23.78-.59-35.71.11C60.82,142.33,72.66,139.9,84.65,141.88Z" transform="translate(11.65 35.47)"/><path class="cls-16" d="M139.09,127.6c-2.05,1.63-4.43,2-7,1.94-9.71-.07-19.41-.07-29.11-.1,7.17-2,14.49-.34,21.71-.9,3-.23,6.08.43,9-1.8H104.84v-1.17h31.08A3.31,3.31,0,0,1,139.09,127.6Z" transform="translate(11.65 35.47)"/><path class="cls-16" d="M150.9,122.54c2.06.56,2.15,2.08,1.86,3.78l-9.83.29c.61-2,2.21-2.12,3.9-2.14S150.15,124.46,150.9,122.54Z" transform="translate(11.65 35.47)"/><path class="cls-18" d="M97.93,130.37c-1.06.2-1.81,0-1.9-1.27C97,129,97.49,129.67,97.93,130.37Z" transform="translate(11.65 35.47)"/><ellipse class="cls-17" cx="154.58" cy="139.49" rx="19.79" ry="0.28"/><path class="cls-17" d="M121,142.75h12v.53H120.9Z" transform="translate(11.65 35.47)"/><path class="cls-14" d="M150.93,93.5a27.3,27.3,0,0,1-16,0Z" transform="translate(11.65 35.47)"/><path class="cls-3" d="M142.66,81.72l-2.6,0-.29-.3a5.67,5.67,0,0,1,3.44-2.24l.08.07-.09,2.14Z" transform="translate(11.65 35.47)"/><path class="cls-3" d="M144,83a1.46,1.46,0,0,1-1.11,1.59c-.07-1-.15-1.91-.22-2.86l.53-.36C143.46,81.91,143.72,82.45,144,83Z" transform="translate(11.65 35.47)"/><polygon class="cls-3" points="151.71 117.16 151.31 117.27 151.42 116.87 151.71 117.16"/><path class="cls-6" d="M144,83c-.27-.54-.53-1.08-.8-1.63,0-.71.07-1.42.1-2.14C144.69,80.26,144.55,81.59,144,83Z" transform="translate(11.65 35.47)"/><path class="cls-5" d="M159.58,90.26c-.13,0-.34,0-.36,0a1,1,0,0,1,0-.43c.12,0,.34,0,.36,0A1.49,1.49,0,0,1,159.58,90.26Z" transform="translate(11.65 35.47)"/><rect class="cls-5" x="62.11" y="10.28" width="35.08" height="9.15" transform="translate(10.27 50.79) rotate(-10.89)"/><rect class="cls-4" width="208.83" height="44.56"/></g></g></g></svg>